<svg width="64" height="64" viewBox="0 0 64 64" fill="none" xmlns="http://www.w3.org/2000/svg">
<g filter="url(#filter0_d_1_8)">
<path d="M13.25 13.9376C12.8356 13.9376 12.4382 14.1022 12.1451 14.3952C11.8521 14.6882 11.6875 15.0857 11.6875 15.5001C11.6875 15.9145 11.8521 16.3119 12.1451 16.6049C12.4382 16.8979 12.8356 17.0626 13.25 17.0626H16.7187L20.8187 33.4688C21.1672 34.8594 22.4125 35.8126 23.8453 35.8126H43.3297C44.7406 35.8126 45.9391 34.8751 46.3094 33.5157L50.3594 18.6251H47.0875L43.3281 32.6876H23.8438L19.7453 16.2813C19.576 15.6082 19.1857 15.0114 18.637 14.5865C18.0883 14.1615 17.4128 13.933 16.7187 13.9376H13.25ZM41.375 35.8126C38.8047 35.8126 36.6875 37.9298 36.6875 40.5001C36.6875 43.0704 38.8047 45.1876 41.375 45.1876C43.9453 45.1876 46.0625 43.0704 46.0625 40.5001C46.0625 37.9298 43.9453 35.8126 41.375 35.8126ZM27.3125 35.8126C24.7422 35.8126 22.625 37.9298 22.625 40.5001C22.625 43.0704 24.7422 45.1876 27.3125 45.1876C29.8828 45.1876 32 43.0704 32 40.5001C32 37.9298 29.8828 35.8126 27.3125 35.8126ZM32 13.9376V21.7501H27.3125L33.5625 28.0001L39.8125 21.7501H35.125V13.9376H32ZM27.3125 38.9376C28.1938 38.9376 28.875 39.6188 28.875 40.5001C28.875 41.3813 28.1938 42.0626 27.3125 42.0626C26.4312 42.0626 25.75 41.3813 25.75 40.5001C25.75 39.6188 26.4312 38.9376 27.3125 38.9376ZM41.375 38.9376C42.2563 38.9376 42.9375 39.6188 42.9375 40.5001C42.9375 41.3813 42.2563 42.0626 41.375 42.0626C40.4937 42.0626 39.8125 41.3813 39.8125 40.5001C39.8125 39.6188 40.4937 38.9376 41.375 38.9376Z" fill="#FF00D9" fill-opacity="0.555511"/>
<rect x="5.5" y="1.5" width="53" height="53" rx="6.5" stroke="#FF00D9" stroke-opacity="0.555511" stroke-width="3" shape-rendering="crispEdges"/>
</g>
<defs>
<filter id="filter0_d_1_8" x="0" y="0" width="64" height="64" filterUnits="userSpaceOnUse" color-interpolation-filters="sRGB">
<feFlood flood-opacity="0" result="BackgroundImageFix"/>
<feColorMatrix in="SourceAlpha" type="matrix" values="0 0 0 0 0 0 0 0 0 0 0 0 0 0 0 0 0 0 127 0" result="hardAlpha"/>
<feOffset dy="4"/>
<feGaussianBlur stdDeviation="2"/>
<feComposite in2="hardAlpha" operator="out"/>
<feColorMatrix type="matrix" values="0 0 0 0 0 0 0 0 0 0 0 0 0 0 0 0 0 0 0.25 0"/>
<feBlend mode="normal" in2="BackgroundImageFix" result="effect1_dropShadow_1_8"/>
<feBlend mode="normal" in="SourceGraphic" in2="effect1_dropShadow_1_8" result="shape"/>
</filter>
</defs>
</svg>
