<svg width="279" height="315" viewBox="0 0 279 315" fill="none" xmlns="http://www.w3.org/2000/svg">
<g clip-path="url(#clip0_254_874)">
<path d="M267.667 170.667C273.534 170.667 278.334 165.867 278.334 160C278.334 154.133 273.534 149.333 267.667 149.333C261.8 149.333 257 154.133 257 160C257 165.867 261.8 170.667 267.667 170.667Z" fill="#FF9EF0"/>
<path d="M118.333 21.333C124.2 21.333 129 16.533 129 10.666C129 4.8 124.2 0 118.333 0C112.466 0 107.666 4.8 107.666 10.667C107.667 16.533 112.467 21.333 118.333 21.333Z" fill="#FF9EF0"/>
<path d="M33 96C44.733 96 54.333 86.4 54.333 74.667C54.333 62.934 44.733 53.334 33 53.334C21.267 53.334 11.667 62.934 11.667 74.667C11.667 86.4 21.267 96 33 96Z" fill="#FF9EF0"/>
<path d="M33 21.333C38.867 21.333 43.667 16.533 43.667 10.666C43.667 4.8 38.867 0 33 0C27.133 0 22.333 4.8 22.333 10.667C22.333 16.533 27.133 21.333 33 21.333Z" fill="#FF9EF0"/>
<path d="M118.333 96C130.066 96 139.666 86.4 139.666 74.667C139.666 62.934 130.066 53.334 118.333 53.334C106.6 53.334 97 62.934 97 74.667C97 86.4 106.6 96 118.333 96Z" fill="#FF9EF0"/>
<path d="M118.333 128C100.626 128 86.333 142.293 86.333 160C86.333 177.707 100.626 192 118.333 192C136.04 192 150.333 177.707 150.333 160C150.333 142.293 136.04 128 118.333 128Z" fill="#FF9EF0"/>
<path d="M203.667 224C191.934 224 182.334 233.6 182.334 245.333C182.334 257.066 191.934 266.666 203.667 266.666C215.4 266.666 225 257.066 225 245.333C225 233.6 215.4 224 203.667 224Z" fill="#FF9EF0"/>
<path d="M203.667 309.333C191.934 309.333 182.334 318.933 182.334 330.666C182.334 342.399 191.934 351.999 203.667 351.999C215.4 352 225 342.4 225 330.667C225 318.933 215.4 309.333 203.667 309.333Z" fill="#FF9EF0"/>
<path d="M203.667 138.667C191.934 138.667 182.334 148.267 182.334 160C182.334 171.733 191.934 181.333 203.667 181.333C215.4 181.333 225 171.733 225 160C225 148.267 215.4 138.667 203.667 138.667Z" fill="#FF9EF0"/>
<path d="M267.667 234.667C261.8 234.667 257 239.467 257 245.334C257 251.2 261.8 256 267.667 256C273.534 256 278.334 251.2 278.334 245.333C278.333 239.467 273.533 234.667 267.667 234.667Z" fill="#FF9EF0"/>
<path d="M203.667 53.333C191.934 53.333 182.334 62.933 182.334 74.666C182.334 86.399 191.933 96 203.667 96C215.4 96 225 86.4 225 74.667C225 62.934 215.4 53.333 203.667 53.333Z" fill="#FF9EF0"/>
<path d="M33 213.333C15.293 213.333 1 227.626 1 245.333C1 263.04 15.293 277.333 33 277.333C50.707 277.333 65 263.04 65 245.333C65 227.626 50.707 213.333 33 213.333Z" fill="#FF9EF0"/>
<path d="M33 309.333C21.267 309.333 11.667 318.933 11.667 330.666C11.667 342.399 21.267 351.999 33 351.999C44.733 351.999 54.333 342.399 54.333 330.666C54.333 318.933 44.733 309.333 33 309.333Z" fill="#FF9EF0"/>
<path d="M33 128C15.293 128 1 142.293 1 160C1 177.707 15.293 192 33 192C50.707 192 65 177.707 65 160C65 142.293 50.707 128 33 128Z" fill="#FF9EF0"/>
<path d="M118.333 309.333C106.6 309.333 97 318.933 97 330.666C97 342.4 106.6 352 118.333 352C130.066 352 139.666 342.4 139.666 330.667C139.667 318.933 130.067 309.333 118.333 309.333Z" fill="#FF9EF0"/>
<path d="M118.333 213.333C100.626 213.333 86.333 227.626 86.333 245.333C86.333 263.04 100.626 277.333 118.333 277.333C136.04 277.333 150.333 263.04 150.333 245.333C150.333 227.626 136.04 213.333 118.333 213.333Z" fill="#FF9EF0"/>
</g>
<defs>
<clipPath id="clip0_254_874">
<rect width="405.333" height="405.333" fill="white" transform="translate(-127)"/>
</clipPath>
</defs>
</svg>
