<svg width="406" height="406" viewBox="0 0 406 406" fill="none" xmlns="http://www.w3.org/2000/svg">
<g clip-path="url(#clip0_254_874)">
<path d="M10.667 234.667C4.8 234.667 0 239.467 0 245.333C0 251.2 4.8 256 10.667 256C16.534 256 21.334 251.2 21.334 245.333C21.333 239.467 16.533 234.667 10.667 234.667Z" fill="#FF9EF0"/>
<path d="M10.667 149.333C4.8 149.333 0 154.133 0 160C0 165.867 4.8 170.667 10.667 170.667C16.534 170.667 21.334 165.867 21.334 160C21.333 154.133 16.533 149.333 10.667 149.333Z" fill="#FF9EF0"/>
<path d="M160 384C154.133 384 149.333 388.8 149.333 394.667C149.333 400.534 154.133 405.334 160 405.334C165.867 405.334 170.667 400.534 170.667 394.667C170.667 388.8 165.867 384 160 384Z" fill="#FF9EF0"/>
<path d="M74.667 53.333C62.934 53.333 53.334 62.933 53.334 74.666C53.334 86.399 62.933 96 74.667 96C86.401 96 96 86.4 96 74.667C96 62.934 86.4 53.333 74.667 53.333Z" fill="#FF9EF0"/>
<path d="M74.667 138.667C62.934 138.667 53.334 148.267 53.334 160C53.334 171.733 62.934 181.333 74.667 181.333C86.4 181.333 96 171.733 96 160C96 148.267 86.4 138.667 74.667 138.667Z" fill="#FF9EF0"/>
<path d="M74.667 224C62.934 224 53.334 233.6 53.334 245.333C53.334 257.066 62.934 266.666 74.667 266.666C86.4 266.666 96 257.067 96 245.333C96 233.6 86.4 224 74.667 224Z" fill="#FF9EF0"/>
<path d="M394.667 170.667C400.534 170.667 405.334 165.867 405.334 160C405.334 154.133 400.534 149.333 394.667 149.333C388.8 149.333 384 154.133 384 160C384 165.867 388.8 170.667 394.667 170.667Z" fill="#FF9EF0"/>
<path d="M245.333 21.333C251.2 21.333 256 16.533 256 10.666C256 4.8 251.2 0 245.333 0C239.466 0 234.666 4.8 234.666 10.667C234.667 16.533 239.467 21.333 245.333 21.333Z" fill="#FF9EF0"/>
<path d="M160 96C171.733 96 181.333 86.4 181.333 74.667C181.333 62.934 171.733 53.334 160 53.334C148.267 53.334 138.667 62.934 138.667 74.667C138.667 86.4 148.267 96 160 96Z" fill="#FF9EF0"/>
<path d="M160 21.333C165.867 21.333 170.667 16.533 170.667 10.666C170.667 4.8 165.867 0 160 0C154.133 0 149.333 4.8 149.333 10.667C149.333 16.533 154.133 21.333 160 21.333Z" fill="#FF9EF0"/>
<path d="M245.333 96C257.066 96 266.666 86.4 266.666 74.667C266.666 62.934 257.066 53.334 245.333 53.334C233.6 53.334 224 62.934 224 74.667C224 86.4 233.6 96 245.333 96Z" fill="#FF9EF0"/>
<path d="M74.667 309.333C62.934 309.333 53.334 318.933 53.334 330.666C53.334 342.399 62.934 351.999 74.667 351.999C86.4 351.999 96 342.4 96 330.667C96 318.933 86.4 309.333 74.667 309.333Z" fill="#FF9EF0"/>
<path d="M245.333 128C227.626 128 213.333 142.293 213.333 160C213.333 177.707 227.626 192 245.333 192C263.04 192 277.333 177.707 277.333 160C277.333 142.293 263.04 128 245.333 128Z" fill="#FF9EF0"/>
<path d="M330.667 224C318.934 224 309.334 233.6 309.334 245.333C309.334 257.066 318.934 266.666 330.667 266.666C342.4 266.666 352 257.066 352 245.333C352 233.6 342.4 224 330.667 224Z" fill="#FF9EF0"/>
<path d="M330.667 309.333C318.934 309.333 309.334 318.933 309.334 330.666C309.334 342.399 318.934 351.999 330.667 351.999C342.4 352 352 342.4 352 330.667C352 318.933 342.4 309.333 330.667 309.333Z" fill="#FF9EF0"/>
<path d="M330.667 138.667C318.934 138.667 309.334 148.267 309.334 160C309.334 171.733 318.934 181.333 330.667 181.333C342.4 181.333 352 171.733 352 160C352 148.267 342.4 138.667 330.667 138.667Z" fill="#FF9EF0"/>
<path d="M394.667 234.667C388.8 234.667 384 239.467 384 245.334C384 251.2 388.8 256 394.667 256C400.534 256 405.334 251.2 405.334 245.333C405.333 239.467 400.533 234.667 394.667 234.667Z" fill="#FF9EF0"/>
<path d="M330.667 53.333C318.934 53.333 309.334 62.933 309.334 74.666C309.334 86.399 318.933 96 330.667 96C342.4 96 352 86.4 352 74.667C352 62.934 342.4 53.333 330.667 53.333Z" fill="#FF9EF0"/>
<path d="M160 213.333C142.293 213.333 128 227.626 128 245.333C128 263.04 142.293 277.333 160 277.333C177.707 277.333 192 263.04 192 245.333C192 227.626 177.707 213.333 160 213.333Z" fill="#FF9EF0"/>
<path d="M160 309.333C148.267 309.333 138.667 318.933 138.667 330.666C138.667 342.399 148.267 351.999 160 351.999C171.733 351.999 181.333 342.399 181.333 330.666C181.333 318.933 171.733 309.333 160 309.333Z" fill="#FF9EF0"/>
<path d="M160 128C142.293 128 128 142.293 128 160C128 177.707 142.293 192 160 192C177.707 192 192 177.707 192 160C192 142.293 177.707 128 160 128Z" fill="#FF9EF0"/>
<path d="M245.333 309.333C233.6 309.333 224 318.933 224 330.666C224 342.4 233.6 352 245.333 352C257.066 352 266.666 342.4 266.666 330.667C266.667 318.933 257.067 309.333 245.333 309.333Z" fill="#FF9EF0"/>
<path d="M245.333 384C239.466 384 234.666 388.8 234.666 394.667C234.666 400.534 239.466 405.334 245.333 405.334C251.2 405.334 256 400.534 256 394.667C256 388.8 251.2 384 245.333 384Z" fill="#FF9EF0"/>
<path d="M245.333 213.333C227.626 213.333 213.333 227.626 213.333 245.333C213.333 263.04 227.626 277.333 245.333 277.333C263.04 277.333 277.333 263.04 277.333 245.333C277.333 227.626 263.04 213.333 245.333 213.333Z" fill="#FF9EF0"/>
</g>
<defs>
<clipPath id="clip0_254_874">
<rect width="405.333" height="405.333" fill="white"/>
</clipPath>
</defs>
</svg>
