<svg width="96" height="73" viewBox="0 0 96 73" fill="none" xmlns="http://www.w3.org/2000/svg">
<path d="M42.0117 52.1289L54.3516 15.8125H64.8633L45.8438 67H35.4727L32.7656 32.8984L19.3711 67H9L5.97656 15.8125H16.0312L17.0508 51.9531L30.832 15.8125H39.5859L42.0117 52.1289Z" fill="url(#paint0_radial_250_873)"/>
<path d="M84.4323 60.5312C82.6041 62.8516 79.9205 64.6445 76.3815 65.9102C72.8658 67.1523 68.8932 67.7383 64.4635 67.668C60.9713 67.6445 57.901 66.8828 55.2526 65.3828C52.6041 63.8594 50.5182 61.6797 48.9948 58.8438C47.4713 56.0078 46.6041 52.7734 46.3932 49.1406C46.1588 45.7656 46.5104 41.8047 47.4479 37.2578C48.4088 32.6875 50.0377 28.6914 52.3346 25.2695C54.6549 21.8242 57.4323 19.2578 60.6666 17.5703C63.901 15.8594 67.4869 15.0391 71.4244 15.1094C76.7682 15.2031 80.9518 16.7148 83.9752 19.6445C86.9987 22.5508 88.7213 26.7227 89.1432 32.1602L79.2291 32.125C78.9713 29.2656 78.2096 27.1563 76.944 25.7969C75.6783 24.4375 73.7916 23.7109 71.2838 23.6172C66.9479 23.4766 63.526 25.3867 61.0182 29.3477C58.5338 33.2852 57.1158 39.0039 56.7643 46.5039C56.5299 50.5117 57.1393 53.6172 58.5924 55.8203C60.069 58.0234 62.3073 59.1484 65.3073 59.1953C68.7994 59.2891 71.776 58.457 74.2369 56.6992L75.9596 47.875H66.608L67.9791 40.1055H87.526L84.4323 60.5312Z" fill="url(#paint1_radial_250_873)"/>
<path d="M65.5498 15.0183C56.8472 17.0648 51.5807 24.5385 49.7113 27.5497L53.3403 15.7164C61.0362 14.631 74.2523 12.9718 65.5498 15.0183Z" fill="white" stroke="white"/>
<defs>
<radialGradient id="paint0_radial_250_873" cx="0" cy="0" r="1" gradientUnits="userSpaceOnUse" gradientTransform="translate(73.1944 11.0349) rotate(146.952) scale(94.9487 692.818)">
<stop stop-color="#3254E1"/>
<stop offset="0.9998" stop-color="#FF00D9" stop-opacity="0.555511"/>
<stop offset="0.9999" stop-color="#BB1C4E" stop-opacity="0.333333"/>
<stop offset="1" stop-color="#FF0004" stop-opacity="0"/>
</radialGradient>
<radialGradient id="paint1_radial_250_873" cx="0" cy="0" r="1" gradientUnits="userSpaceOnUse" gradientTransform="translate(99.3333 11.0349) rotate(139.958) scale(80.4837 632.776)">
<stop stop-color="#3254E1"/>
<stop offset="0.9998" stop-color="#FF00D9" stop-opacity="0.555511"/>
<stop offset="0.9999" stop-color="#BB1C4E" stop-opacity="0.333333"/>
<stop offset="1" stop-color="#FF0004" stop-opacity="0"/>
</radialGradient>
</defs>
</svg>
