<svg width="200" height="39" viewBox="0 0 200 39" fill="none" xmlns="http://www.w3.org/2000/svg">
<path d="M20.3398 21.7383L27.1953 1.5625H33.0352L22.4688 30H16.707L15.2031 11.0547L7.76172 30H2L0.320312 1.5625H5.90625L6.47266 21.6406L14.1289 1.5625H18.9922L20.3398 21.7383ZM40.6133 30.3906C38.7643 30.3776 37.1237 29.9284 35.6914 29.043C34.2721 28.1445 33.2109 26.9206 32.5078 25.3711C31.8047 23.8086 31.5312 22.0898 31.6875 20.2148L31.7461 19.4336C31.9414 17.3763 32.5404 15.4883 33.543 13.7695C34.5456 12.0508 35.8346 10.7292 37.4102 9.80469C38.9857 8.86719 40.7305 8.42448 42.6445 8.47656C45.3659 8.52865 47.4232 9.53125 48.8164 11.4844C50.2227 13.4245 50.7565 15.8854 50.418 18.8672L50.1055 21.2695H37.1562C37.1042 22.6367 37.4362 23.7305 38.1523 24.5508C38.8685 25.3711 39.8451 25.7943 41.082 25.8203C43.0872 25.8724 44.8451 25.0977 46.3555 23.4961L48.875 26.6211C48.0807 27.819 46.9349 28.7565 45.4375 29.4336C43.9401 30.0977 42.332 30.4167 40.6133 30.3906ZM42.3711 13.0273C41.3555 13.0013 40.4505 13.3203 39.6562 13.9844C38.875 14.6484 38.1719 15.8008 37.5469 17.4414H45.125L45.2422 16.9336C45.3203 16.4128 45.3268 15.918 45.2617 15.4492C45.1315 14.694 44.8125 14.1081 44.3047 13.6914C43.7969 13.2617 43.1523 13.0404 42.3711 13.0273ZM72.0586 19.4922C71.668 22.8255 70.6523 25.4948 69.0117 27.5C67.3711 29.5052 65.2487 30.4753 62.6445 30.4102C60.418 30.3581 58.7253 29.4596 57.5664 27.7148L56.7656 30H51.7461L56.9414 0H62.4688L60.3398 10.8008C61.8242 9.19922 63.543 8.42448 65.4961 8.47656C67.5404 8.5026 69.1419 9.23828 70.3008 10.6836C71.4727 12.1159 72.0977 14.1016 72.1758 16.6406C72.2018 17.4479 72.1628 18.3984 72.0586 19.4922ZM66.5898 19.082C66.707 17.9753 66.7461 17.1159 66.707 16.5039C66.5638 14.2383 65.6263 13.0859 63.8945 13.0469C62.2669 12.9948 60.9193 13.7305 59.8516 15.2539L58.3281 23.6523C58.8229 25.0586 59.8776 25.7878 61.4922 25.8398C64.2005 25.918 65.8607 23.9518 66.4727 19.9414L66.5898 19.082ZM96.9219 26.4062C95.9062 27.6953 94.4154 28.6914 92.4492 29.3945C90.4961 30.0846 88.2891 30.4102 85.8281 30.3711C83.888 30.3581 82.1823 29.9349 80.7109 29.1016C79.2396 28.2552 78.0807 27.0443 77.2344 25.4688C76.388 23.8932 75.9062 22.0964 75.7891 20.0781C75.6589 18.2031 75.8542 16.0026 76.375 13.4766C76.9089 10.9375 77.8138 8.71745 79.0898 6.81641C80.3789 4.90234 81.9219 3.47656 83.7188 2.53906C85.5156 1.58854 87.5078 1.13281 89.6953 1.17188C92.6641 1.22396 94.9883 2.0638 96.668 3.69141C98.3477 5.30599 99.3047 7.6237 99.5391 10.6445L94.0312 10.625C93.888 9.03646 93.4648 7.86458 92.7617 7.10938C92.0586 6.35417 91.0104 5.95052 89.6172 5.89844C87.2083 5.82031 85.3073 6.88151 83.9141 9.08203C82.5339 11.2695 81.7461 14.4466 81.5508 18.6133C81.4206 20.8398 81.7591 22.5651 82.5664 23.7891C83.3867 25.013 84.6302 25.638 86.2969 25.6641C88.237 25.7161 89.8906 25.2539 91.2578 24.2773L92.2148 19.375H87.0195L87.7812 15.0586H98.6406L96.9219 26.4062ZM112.645 30C112.475 29.4661 112.404 28.8281 112.43 28.0859C110.841 29.6745 109.044 30.4427 107.039 30.3906C105.19 30.3646 103.654 29.7656 102.43 28.5938C101.219 27.4089 100.652 25.9505 100.73 24.2188C100.822 21.9141 101.785 20.1497 103.621 18.9258C105.47 17.6888 107.944 17.0703 111.043 17.0703L113.621 17.1094L113.895 15.8398C113.973 15.4102 113.992 15 113.953 14.6094C113.888 13.9974 113.654 13.5221 113.25 13.1836C112.859 12.832 112.339 12.6497 111.688 12.6367C110.828 12.6107 110.099 12.8255 109.5 13.2812C108.901 13.724 108.517 14.3685 108.348 15.2148L102.82 15.2344C102.911 13.2161 103.836 11.582 105.594 10.332C107.365 9.06901 109.546 8.45052 112.137 8.47656C114.533 8.52865 116.408 9.24479 117.762 10.625C119.116 11.9922 119.682 13.7565 119.461 15.918L117.84 26.0352L117.742 27.2852C117.716 28.2096 117.827 28.9909 118.074 29.6289L118.055 30H112.645ZM108.406 26.1133C109.995 26.1654 111.382 25.4753 112.566 24.043L113.25 20.3906L111.336 20.3711C109.305 20.4232 107.84 21.0417 106.941 22.2266C106.616 22.6562 106.414 23.1836 106.336 23.8086C106.232 24.5117 106.375 25.0716 106.766 25.4883C107.169 25.8919 107.716 26.1003 108.406 26.1133ZM127.254 30H121.707L126.922 0H132.449L127.254 30ZM137.762 30H132.215L137.43 0H142.957L137.762 30ZM152.488 30.3906C150.639 30.3776 148.999 29.9284 147.566 29.043C146.147 28.1445 145.086 26.9206 144.383 25.3711C143.68 23.8086 143.406 22.0898 143.562 20.2148L143.621 19.4336C143.816 17.3763 144.415 15.4883 145.418 13.7695C146.421 12.0508 147.71 10.7292 149.285 9.80469C150.861 8.86719 152.605 8.42448 154.52 8.47656C157.241 8.52865 159.298 9.53125 160.691 11.4844C162.098 13.4245 162.632 15.8854 162.293 18.8672L161.98 21.2695H149.031C148.979 22.6367 149.311 23.7305 150.027 24.5508C150.743 25.3711 151.72 25.7943 152.957 25.8203C154.962 25.8724 156.72 25.0977 158.23 23.4961L160.75 26.6211C159.956 27.819 158.81 28.7565 157.312 29.4336C155.815 30.0977 154.207 30.4167 152.488 30.3906ZM154.246 13.0273C153.23 13.0013 152.326 13.3203 151.531 13.9844C150.75 14.6484 150.047 15.8008 149.422 17.4414H157L157.117 16.9336C157.195 16.4128 157.202 15.918 157.137 15.4492C157.007 14.694 156.688 14.1081 156.18 13.6914C155.672 13.2617 155.027 13.0404 154.246 13.0273ZM178.094 14.1602C177.339 14.0299 176.72 13.9648 176.238 13.9648C174.272 13.9128 172.716 14.6484 171.57 16.1719L169.129 30H163.621L167.293 8.86719L172.469 8.84766L171.961 11.4258C173.289 9.43359 174.93 8.4375 176.883 8.4375C177.43 8.4375 178.068 8.52865 178.797 8.71094L178.094 14.1602ZM187.312 21.9531L193.348 8.86719H199.48L187.117 33.1836C186.232 35.0456 185.19 36.4128 183.992 37.2852C182.807 38.1576 181.434 38.5938 179.871 38.5938C179.259 38.5938 178.374 38.457 177.215 38.1836L177.625 33.8867L178.387 33.9258C180.184 33.9779 181.499 33.3203 182.332 31.9531L183.543 29.707L180.086 8.86719H185.789L187.312 21.9531Z" fill="url(#paint0_radial_1_10)"/>
<defs>
<radialGradient id="paint0_radial_1_10" cx="0" cy="0" r="1" gradientUnits="userSpaceOnUse" gradientTransform="translate(210.562 0.104659) rotate(171.83) scale(234.597 526.754)">
<stop stop-color="#3254E1"/>
<stop offset="0.9998" stop-color="#FF00D9" stop-opacity="0.555511"/>
<stop offset="0.9999" stop-color="#BB1C4E" stop-opacity="0.333333"/>
<stop offset="1" stop-color="#FF0004" stop-opacity="0"/>
</radialGradient>
</defs>
</svg>
